<?xml version="1.0" standalone="no"?><!DOCTYPE svg PUBLIC "-//W3C//DTD SVG 1.1//EN" "http://www.w3.org/Graphics/SVG/1.1/DTD/svg11.dtd"><svg t="1765768522610" class="icon" viewBox="0 0 1024 1024" version="1.1" xmlns="http://www.w3.org/2000/svg" p-id="11954" xmlns:xlink="http://www.w3.org/1999/xlink" width="128" height="128"><path d="M306.1 799.8h-51.2V566.4c0-14.1 11.5-25.6 25.6-25.6 14.1 0 25.6 11.5 25.6 25.6v233.4z m167.6 0h-51.2V632.4c0-14.1 11.5-25.6 25.6-25.6 14.1 0 25.6 11.5 25.6 25.6v167.4z m164.8 0.3h-51.2V489.7c0-14.1 11.5-25.6 25.6-25.6s25.6 11.5 25.6 25.6v310.4z m-201-301c-7.3 0-14.4-3.1-19.4-8.9l-57.4-66.9-57.4 66.9c-9.2 10.7-25.4 12-36.1 2.8-10.7-9.2-12-25.4-2.8-36.1l76.8-89.6c4.9-5.7 12-8.9 19.4-8.9 7.5 0 14.6 3.3 19.4 8.9l62 72.4 134.7-89.8c11.8-7.8 27.7-4.7 35.5 7.1 7.8 11.8 4.7 27.7-7.1 35.5L451.7 494.8c-4.2 2.8-9.2 4.3-14.2 4.3z m0 0" p-id="11955" fill="#ffffff"></path><path d="M761.9 957.6H134c-39.8 0-72-32.2-72-72v-621c0-39.8 32.2-72 72-72h627.9c39.8 0 72 32.2 72 72v621c0 39.7-32.2 72-72 72z m-627.9-72h627.9v-621H134v621z" p-id="11956" fill="#ffffff"></path><path d="M227.9 134.9h660.4v660.9c0 19.9 16.1 36 36 36s36-16.1 36-36V134.9c0-39.8-32.2-72-72-72H227.9c-19.9 0-36 16.1-36 36s16.1 36 36 36z" p-id="11957" fill="#ffffff"></path></svg>