<?xml version="1.0" standalone="no"?><!DOCTYPE svg PUBLIC "-//W3C//DTD SVG 1.1//EN" "http://www.w3.org/Graphics/SVG/1.1/DTD/svg11.dtd"><svg t="1765767578649" class="icon" viewBox="0 0 1024 1024" version="1.1" xmlns="http://www.w3.org/2000/svg" p-id="4232" width="128" height="128" xmlns:xlink="http://www.w3.org/1999/xlink"><path d="M881 906.45H220.99c-66.17 0-120-53.83-120-120v-657.5c0-22.09 17.91-40 40-40s40 17.91 40 40v657.5c0 22.06 17.94 40 40 40H881c22.09 0 40 17.91 40 40s-17.91 40-40 40z" p-id="4233" fill="#1296db"></path><path d="M404 769.95H278.75c-22.09 0-40-17.91-40-40s17.91-40 40-40H404c22.09 0 40 17.91 40 40s-17.91 40-40 40zM543 594.95H278.75c-22.09 0-40-17.91-40-40s17.91-40 40-40H543c22.09 0 40 17.91 40 40s-17.91 40-40 40zM881 419.95H278.75c-22.09 0-40-17.91-40-40s17.91-40 40-40H881c22.09 0 40 17.91 40 40s-17.91 40-40 40zM664.75 244.95h-386c-22.09 0-40-17.91-40-40s17.91-40 40-40h386c22.09 0 40 17.91 40 40s-17.91 40-40 40z" p-id="4234" fill="#1296db"></path></svg>