<?xml version="1.0" standalone="no"?><!DOCTYPE svg PUBLIC "-//W3C//DTD SVG 1.1//EN" "http://www.w3.org/Graphics/SVG/1.1/DTD/svg11.dtd"><svg t="1765767800362" class="icon" viewBox="0 0 1024 1024" version="1.1" xmlns="http://www.w3.org/2000/svg" p-id="8653" xmlns:xlink="http://www.w3.org/1999/xlink" width="128" height="128"><path d="M290.14016 640.78336h81.92v40.96h-81.92zM389.72928 640.78336h81.92v40.96h-81.92zM291.54816 552.42752h81.92v40.96h-81.92zM391.13728 552.42752h81.92v40.96h-81.92zM291.54816 464.07168h81.92v40.96h-81.92zM391.13728 464.07168h81.92v40.96h-81.92zM291.54816 368.64h81.92v40.96h-81.92zM391.13728 368.64h81.92v40.96h-81.92zM573.44 640.78336h153.6v40.96h-153.6zM573.44 552.42752h153.6v40.96h-153.6zM573.44 464.07168h153.6v40.96h-153.6z" fill="#1296db" p-id="8654"></path><path d="M803.84 747.52V389.12c0-22.58432-18.37568-40.96-40.96-40.96h-225.28c-0.57344 0-1.13152 0.06144-1.69984 0.08704V276.48c0-22.58432-18.37568-40.96-40.96-40.96h-225.28c-22.58432 0-40.96 18.37568-40.96 40.96v471.04H194.56v40.96h634.88v-40.96h-25.6z m-534.17984 0V276.48h225.28v471.04h-225.28zM537.6 747.52V389.12h225.28v358.4h-225.28z" fill="#1296db" p-id="8655"></path></svg>