<?xml version="1.0" standalone="no"?><!DOCTYPE svg PUBLIC "-//W3C//DTD SVG 1.1//EN" "http://www.w3.org/Graphics/SVG/1.1/DTD/svg11.dtd"><svg t="1765768456896" class="icon" viewBox="0 0 1024 1024" version="1.1" xmlns="http://www.w3.org/2000/svg" p-id="10686" xmlns:xlink="http://www.w3.org/1999/xlink" width="128" height="128"><path d="M993.783741 967.11484H56.88516v-377.148609a28.44258 28.44258 0 0 0-56.88516 0v405.591189a28.44258 28.44258 0 0 0 28.44258 28.44258h967.047716a28.44258 28.44258 0 0 0 0-56.88516z" p-id="10687" fill="#ffffff"></path><path d="M995.490296 796.459361h-219.576717l-77.932669-221.852123a28.44258 28.44258 0 0 0-52.334347-2.844258l-117.752281 243.468484-113.770319-194.547247a29.011431 29.011431 0 0 0-26.167174-14.22129 28.44258 28.44258 0 0 0-24.460618 17.065548L284.425799 796.459361H138.79979a28.44258 28.44258 0 0 0 0 56.88516h166.104666a28.44258 28.44258 0 0 0 26.167174-17.065548l61.435972-139.368642 113.77032 192.840692a28.44258 28.44258 0 0 0 24.460618 14.22129 28.44258 28.44258 0 0 0 24.460619-15.927845l113.77032-227.540639 62.004824 176.343995a28.44258 28.44258 0 0 0 26.736025 18.772103h237.779968a28.44258 28.44258 0 0 0 0-56.88516zM28.44258 468.231989h967.047716a28.44258 28.44258 0 1 0 0-56.88516H56.88516V34.19822a28.44258 28.44258 0 0 0-56.88516 0v405.591189a28.44258 28.44258 0 0 0 28.44258 28.44258z" p-id="10688" fill="#ffffff"></path><path d="M138.79979 297.57651h166.104666a28.44258 28.44258 0 0 0 22.754064-11.377032l113.77032-155.296486 119.458835 203.648872a28.44258 28.44258 0 0 0 24.460619 14.22129 28.44258 28.44258 0 0 0 24.460619-15.927845l118.321132-243.468484 113.770319 194.547247a28.44258 28.44258 0 0 0 24.460619 14.22129h129.129313a28.44258 28.44258 0 0 0 0-56.88516h-109.788359l-133.111273-227.540639a27.304877 27.304877 0 0 0-25.598322-13.652439 28.44258 28.44258 0 0 0-24.460619 15.927845l-117.752281 243.468484-113.770319-194.547246a28.44258 28.44258 0 0 0-22.754064-14.22129 29.011431 29.011431 0 0 0-24.460619 11.377032L290.683166 240.69135H138.79979a28.44258 28.44258 0 0 0 0 56.88516z" p-id="10689" fill="#ffffff"></path></svg>