<?xml version="1.0" standalone="no"?><!DOCTYPE svg PUBLIC "-//W3C//DTD SVG 1.1//EN" "http://www.w3.org/Graphics/SVG/1.1/DTD/svg11.dtd"><svg t="1765768489993" class="icon" viewBox="0 0 1068 1024" version="1.1" xmlns="http://www.w3.org/2000/svg" p-id="10889" xmlns:xlink="http://www.w3.org/1999/xlink" width="133.5" height="128"><path d="M939.903382 0H128.618357C56.888889 0 0 56.888889 0 128.618357v576.309179c0 71.729469 56.888889 128.618357 128.618357 128.618358H939.903382c71.729469 0 128.618357-56.888889 128.618357-128.618358V128.618357C1068.521739 56.888889 1011.63285 0 939.903382 0z m56.888889 704.927536c0 32.154589-24.7343 56.888889-56.888889 56.888889H128.618357c-32.154589 0-56.888889-24.7343-56.888888-56.888889V128.618357c0-32.154589 24.7343-56.888889 56.888888-56.888888H939.903382c32.154589 0 56.888889 24.7343 56.888889 56.888888v576.309179zM905.275362 949.797101h-202.821256v-19.787439c0-17.31401-14.84058-32.154589-32.154589-32.15459H378.434783c-17.31401 0-32.154589 14.84058-32.15459 32.15459v19.787439H143.458937c-19.78744 0-37.101449 17.31401-37.101449 37.10145s17.31401 37.101449 37.101449 37.101449h761.816425c19.78744 0 37.101449-17.31401 37.10145-37.101449s-17.31401-37.101449-37.10145-37.10145z" fill="#ffffff" p-id="10890"></path><path d="M497.15942 284.444444c9.89372-7.42029 9.89372-19.78744 0-27.207729-29.681159-19.78744-91.516908-56.888889-165.719806-56.888889S197.874396 237.449275 168.193237 257.236715c-9.89372 7.42029-9.89372 19.78744 0 27.207729 29.681159 19.78744 91.516908 56.888889 165.719806 56.888889s133.565217-37.101449 163.246377-56.888889zM272.077295 272.077295c0-32.154589 27.207729-59.362319 59.362319-59.362319s59.362319 27.207729 59.362318 59.362319c0 32.154589-27.207729 59.362319-59.362318 59.362319S272.077295 304.231884 272.077295 272.077295z" fill="#ffffff" p-id="10891"></path><path d="M333.913043 272.077295m-29.681159 0a29.681159 29.681159 0 1 0 59.362319 0 29.681159 29.681159 0 1 0-59.362319 0Z" fill="#ffffff" p-id="10892"></path><path d="M667.826087 487.2657c-61.835749 0-111.304348 49.468599-111.304348 111.304348s49.468599 111.304348 111.304348 111.304348 111.304348-49.468599 111.304348-111.304348-51.942029-111.304348-111.304348-111.304348z m0 173.140097c-34.628019 0-61.835749-27.207729-61.835749-61.835749s27.207729-61.835749 61.835749-61.835748 61.835749 27.207729 61.835749 61.835748-29.681159 61.835749-61.835749 61.835749zM306.705314 474.898551h24.7343L286.917874 395.748792l-46.995169 79.149759h29.68116c12.36715 128.618357 123.671498 230.028986 254.763285 230.028985V667.826087c-111.304348-2.47343-205.294686-86.570048-217.661836-192.927536zM524.36715 190.454106v37.10145c111.304348 0 205.294686 86.570048 217.661836 195.400966h-24.7343l46.995169 79.149758 46.995169-79.149758h-29.681159c-14.84058-133.565217-126.144928-232.502415-257.236715-232.502416z" fill="#ffffff" p-id="10893"></path></svg>